<?xml version="1.0" encoding="UTF-8" standalone="no"?>
<!DOCTYPE svg PUBLIC "-//W3C//DTD SVG 1.1//EN" "http://www.w3.org/Graphics/SVG/1.1/DTD/svg11.dtd">
<svg xmlns="http://www.w3.org/2000/svg" version="1.1" viewBox="0.00 0.00 96.00 32.00">
<rect fill="#8b1519" x="-4.42" y="-4.42" transform="translate(16.00,7.37) rotate(-45.0)" width="8.84" height="8.84" rx="0.49"/>
<rect fill="#307db7" x="-4.42" y="-4.59" transform="translate(7.25,16.13) rotate(44.9)" width="8.84" height="9.18" rx="0.26"/>
<rect fill="#2a277c" x="-4.57" y="-4.60" transform="translate(24.64,16.02) rotate(44.6)" width="9.14" height="9.20" rx="0.92"/>
<path fill="#000000" d="
  M 39.25 20.00
  L 43.21 20.00
  Q 43.86 20.00 43.92 20.64
  L 43.98 21.17
  A 0.76 0.75 87.2 0 1 43.23 22.00
  L 36.07 22.00
  A 0.62 0.61 -90.0 0 1 35.46 21.38
  L 35.52 10.72
  Q 35.52 10.07 36.17 10.04
  Q 39.57 9.88 42.80 10.04
  Q 43.24 10.06 43.46 10.30
  Q 43.81 10.67 43.78 11.23
  A 0.82 0.82 0.0 0 1 42.96 12.00
  L 39.13 12.00
  Q 38.50 12.00 38.50 12.62
  L 38.50 14.25
  Q 38.50 15.00 39.25 15.00
  L 42.66 15.00
  Q 43.14 15.00 43.27 15.46
  L 43.44 16.09
  A 0.72 0.72 0.0 0 1 42.74 17.00
  L 39.00 17.00
  Q 38.50 17.00 38.50 17.50
  L 38.50 19.25
  Q 38.50 20.00 39.25 20.00
  Z"
/>
<path fill="#000000" d="
  M 51.80 17.88
  C 48.82 16.47 45.42 17.09 46.33 12.24
  A 1.46 1.46 0.0 0 1 46.92 11.32
  Q 50.10 9.11 53.96 10.54
  Q 54.49 10.74 54.58 11.29
  L 54.76 12.32
  A 0.46 0.46 0.0 0 1 54.11 12.81
  Q 52.04 11.86 49.81 12.02
  A 1.19 1.19 0.0 0 0 49.65 14.37
  C 51.88 14.83 57.15 16.08 55.16 19.71
  C 53.58 22.59 50.38 22.14 47.58 21.58
  Q 46.64 21.39 46.30 20.85
  Q 45.95 20.28 46.19 19.56
  A 0.57 0.56 21.7 0 1 46.97 19.23
  Q 49.15 20.27 51.53 19.84
  A 1.04 1.04 0.0 0 0 51.80 17.88
  Z"
/>
<path fill="#000000" d="
  M 65.14 20.00
  L 61.33 20.00
  A 0.75 0.75 0.0 0 0 60.61 20.55
  L 60.36 21.41
  A 0.81 0.80 7.5 0 1 59.58 22.00
  L 57.79 22.00
  A 0.51 0.51 0.0 0 1 57.31 21.31
  L 60.96 11.26
  A 2.37 2.37 0.0 0 1 65.42 11.26
  L 69.08 21.33
  Q 69.29 21.90 68.68 21.93
  L 66.86 22.02
  Q 66.31 22.05 66.12 21.53
  L 65.75 20.44
  Q 65.60 20.00 65.14 20.00
  Z
  M 61.83 17.03
  A 0.72 0.72 0.0 0 0 62.50 18.00
  L 64.15 18.00
  A 0.49 0.48 -8.0 0 0 64.62 17.38
  L 63.63 14.00
  A 0.37 0.37 0.0 0 0 62.92 13.98
  L 61.83 17.03
  Z"
/>
<path fill="#000000" d="
  M 73.93 20.00
  L 78.44 20.00
  A 0.43 0.43 0.0 0 1 78.86 20.35
  L 79.09 21.49
  A 0.43 0.43 0.0 0 1 78.67 22.00
  L 70.92 22.00
  A 0.43 0.43 0.0 0 1 70.49 21.57
  L 70.50 10.43
  A 0.43 0.43 0.0 0 1 70.93 10.00
  L 73.07 10.00
  A 0.43 0.43 0.0 0 1 73.50 10.43
  L 73.50 19.57
  A 0.43 0.43 0.0 0 0 73.93 20.00
  Z"
/>
<path fill="#000000" d="
  M 89.01 22.18
  L 90.12 23.03
  Q 90.45 23.27 90.19 23.59
  Q 89.23 24.73 88.30 23.95
  Q 87.28 23.10 86.27 22.24
  Q 85.89 21.91 85.38 21.90
  C 77.30 21.74 78.13 8.76 86.93 10.06
  C 92.80 10.93 93.09 17.46 88.97 21.14
  Q 88.37 21.68 89.01 22.18
  Z
  M 85.8342 20.0700
  A 4.06 2.90 89.8 0 0 88.7200 15.9999
  A 4.06 2.90 89.8 0 0 85.8058 11.9500
  A 4.06 2.90 89.8 0 0 82.9200 16.0201
  A 4.06 2.90 89.8 0 0 85.8342 20.0700
  Z"
/>
<rect fill="#e7aa2d" x="-4.69" y="-4.77" transform="translate(15.68,24.70) rotate(-44.8)" width="9.38" height="9.54" rx="0.68"/>
</svg>
