<?xml version="1.0" encoding="UTF-8" standalone="no"?>
<!DOCTYPE svg PUBLIC "-//W3C//DTD SVG 1.1//EN" "http://www.w3.org/Graphics/SVG/1.1/DTD/svg11.dtd">
<svg xmlns="http://www.w3.org/2000/svg" version="1.1" viewBox="0.00 0.00 96.00 32.00">
<rect fill="#8b1519" x="-4.42" y="-4.42" transform="translate(16.00,7.37) rotate(-45.0)" width="8.84" height="8.84" rx="0.49"/>
<rect fill="#307db7" x="-4.42" y="-4.59" transform="translate(7.25,16.13) rotate(44.9)" width="8.84" height="9.18" rx="0.26"/>
<rect fill="#2a277c" x="-4.57" y="-4.60" transform="translate(24.64,16.02) rotate(44.6)" width="9.14" height="9.20" rx="0.92"/>
<path fill="#fffeff" d="
  M 38.50 17.50
  L 38.50 19.38
  Q 38.50 20.00 39.13 20.00
  L 43.13 20.00
  Q 43.76 20.00 43.80 20.63
  L 43.84 21.31
  Q 43.88 22.00 43.19 22.00
  L 36.00 22.00
  Q 35.50 22.00 35.50 21.50
  L 35.50 10.50
  Q 35.50 10.00 36.00 10.00
  L 42.93 10.00
  Q 43.54 10.00 43.66 10.60
  L 43.74 11.02
  A 0.82 0.82 0.0 0 1 42.94 12.00
  L 39.00 12.00
  Q 38.50 12.00 38.50 12.50
  L 38.50 14.50
  Q 38.50 15.00 39.00 15.00
  L 42.17 15.00
  Q 42.59 15.00 42.94 15.25
  Q 43.94 15.97 43.04 16.67
  Q 42.62 17.00 42.08 17.00
  L 39.00 17.00
  Q 38.50 17.00 38.50 17.50
  Z"
/>
<path fill="#fffeff" d="
  M 52.35 18.96
  A 0.98 0.97 13.9 0 0 51.57 17.68
  C 42.15 16.25 46.27 7.77 54.00 10.50
  Q 54.40 10.64 54.48 11.04
  L 54.74 12.36
  A 0.44 0.43 -81.7 0 1 54.11 12.83
  Q 51.90 11.66 49.58 12.25
  A 1.10 1.10 0.0 0 0 49.65 14.40
  C 52.67 14.96 56.59 15.77 54.99 20.11
  A 1.49 1.47 84.0 0 1 54.43 20.81
  C 52.85 21.83 47.18 22.94 46.18 20.62
  Q 45.98 20.15 46.15 19.65
  Q 46.34 19.08 46.91 19.27
  C 48.37 19.74 51.71 20.88 52.35 18.96
  Z"
/>
<path fill="#fffeff" d="
  M 60.66 20.47
  Q 60.10 22.88 57.46 21.80
  A 0.40 0.40 0.0 0 1 57.24 21.27
  Q 59.31 16.44 60.74 11.35
  A 2.46 2.45 -47.0 0 1 65.41 11.18
  L 69.09 21.41
  Q 69.31 22.00 68.68 22.00
  L 66.74 22.00
  Q 66.19 22.00 66.02 21.48
  L 65.73 20.52
  Q 65.56 20.00 65.01 20.00
  L 61.25 20.00
  Q 60.77 20.00 60.66 20.47
  Z
  M 61.74 17.60
  A 0.30 0.30 0.0 0 0 62.02 17.99
  L 64.37 18.01
  A 0.30 0.30 0.0 0 0 64.66 17.62
  L 63.51 13.73
  A 0.30 0.30 0.0 0 0 62.94 13.73
  L 61.74 17.60
  Z"
/>
<path fill="#fffeff" d="
  M 78.25 20.04
  A 0.81 0.81 0.0 0 1 79.04 20.86
  Q 79.04 21.71 78.17 21.79
  Q 74.69 22.12 71.17 21.98
  Q 70.50 21.95 70.50 21.29
  L 70.49 10.66
  Q 70.49 10.00 71.15 10.00
  L 72.88 10.00
  Q 73.50 10.00 73.50 10.63
  L 73.50 19.36
  Q 73.50 19.97 74.11 19.98
  L 78.25 20.04
  Z"
/>
<path fill="#fffeff" d="
  M 88.99 22.09
  L 90.23 23.06
  A 0.50 0.50 0.0 0 1 90.19 23.88
  C 88.83 24.73 87.50 23.56 86.45 22.30
  A 1.10 1.10 0.0 0 0 85.63 21.91
  Q 81.12 21.90 80.06 17.77
  C 77.88 9.29 89.98 6.92 91.73 14.72
  Q 92.62 18.70 89.02 21.21
  Q 88.41 21.64 88.99 22.09
  Z
  M 85.8354 20.0798
  A 4.06 2.87 89.5 0 0 88.6699 15.9950
  A 4.06 2.87 89.5 0 0 85.7646 11.9602
  A 4.06 2.87 89.5 0 0 82.9301 16.0450
  A 4.06 2.87 89.5 0 0 85.8354 20.0798
  Z"
/>
<rect fill="#e7aa2d" x="-4.69" y="-4.77" transform="translate(15.68,24.70) rotate(-44.8)" width="9.38" height="9.54" rx="0.68"/>
</svg>
