<?xml version="1.0" encoding="UTF-8"?>
<!DOCTYPE svg PUBLIC "-//W3C//DTD SVG 1.1//EN" "http://www.w3.org/Graphics/SVG/1.1/DTD/svg11.dtd">
<svg xmlns="http://www.w3.org/2000/svg" version="1.1" width="180px" height="180px" style="shape-rendering:geometricPrecision; text-rendering:geometricPrecision; image-rendering:optimizeQuality; fill-rule:evenodd; clip-rule:evenodd" xmlns:xlink="http://www.w3.org/1999/xlink">
<g><path style="opacity:0.973" fill="#f2ab00" d="M 156.5,146.5 C 154.982,142.434 154.149,138.101 154,133.5C 152.11,111.468 152.11,89.4678 154,67.5C 153.282,66.5494 152.449,66.3828 151.5,67C 143.705,74.626 137.705,83.4593 133.5,93.5C 141.502,112.508 147.168,132.175 150.5,152.5C 148.525,154.137 146.525,155.804 144.5,157.5C 141.81,131.263 133.643,106.93 120,84.5C 118.285,82.2406 116.452,80.0739 114.5,78C 113.552,77.5172 112.552,77.3505 111.5,77.5C 113.915,91.3787 114.915,105.379 114.5,119.5C 114.35,137.218 113.35,154.884 111.5,172.5C 109.565,173.15 107.565,173.483 105.5,173.5C 106.922,155.192 107.922,136.859 108.5,118.5C 108.881,106.038 107.881,93.7048 105.5,81.5C 102.654,81.8087 101.154,83.4754 101,86.5C 92.3085,115.174 88.1418,144.507 88.5,174.5C 86.139,174.326 83.8056,173.993 81.5,173.5C 81.7881,163.467 82.4548,153.467 83.5,143.5C 85.217,140.155 85.8836,136.489 85.5,132.5C 88.7731,110.527 91.9397,88.5268 95,66.5C 96.4383,59.8072 97.9383,53.1405 99.5,46.5C 98.1779,46.33 97.0113,46.6634 96,47.5C 77.2461,74.5943 66.7461,104.594 64.5,137.5C 63.5058,147.653 63.1724,157.986 63.5,168.5C 61.2972,168.396 59.2972,167.73 57.5,166.5C 58.2608,148.143 59.0941,129.81 60,111.5C 56.6492,95.8055 50.8159,81.1388 42.5,67.5C 41.675,66.6143 40.675,66.281 39.5,66.5C 41.7946,88.0854 42.9612,109.752 43,131.5C 45.3677,141.039 46.8677,150.705 47.5,160.5C 45.2228,159.551 43.2228,158.218 41.5,156.5C 40.589,139.602 35.7557,123.935 27,109.5C 25.9887,108.663 24.8221,108.33 23.5,108.5C 26.0594,119.337 27.0594,130.337 26.5,141.5C 6.17215,113.488 3.00548,83.4881 17,51.5C 40.2421,11.7401 74.4088,-2.75986 119.5,8C 153.078,20.3259 172.578,44.1592 178,79.5C 180.531,105.073 173.364,127.407 156.5,146.5 Z"/></g>
<g><path style="opacity:1" fill="#236e2c" d="M 85.5,132.5 C 84.4751,135.974 83.8084,139.64 83.5,143.5C 82.4548,153.467 81.7881,163.467 81.5,173.5C 76.6748,173.126 72.0082,172.126 67.5,170.5C 67.189,169.522 66.5223,168.855 65.5,168.5C 64.5014,158.188 64.1681,147.855 64.5,137.5C 66.7461,104.594 77.2461,74.5943 96,47.5C 97.0113,46.6634 98.1779,46.33 99.5,46.5C 97.9383,53.1405 96.4383,59.8072 95,66.5C 91.9397,88.5268 88.7731,110.527 85.5,132.5 Z"/></g>
<g><path style="opacity:1" fill="#34722a" d="M 119.5,46.5 C 120.995,46.4148 121.995,47.0815 122.5,48.5C 119.41,55.1933 117.41,62.1933 116.5,69.5C 113.315,69.0196 110.481,69.6863 108,71.5C 107.833,71.1667 107.667,70.8333 107.5,70.5C 110.999,62.168 114.999,54.168 119.5,46.5 Z"/></g>
<g><path style="opacity:1" fill="#286f2b" d="M 156.5,146.5 C 154.833,148.833 152.833,150.833 150.5,152.5C 147.168,132.175 141.502,112.508 133.5,93.5C 137.705,83.4593 143.705,74.626 151.5,67C 152.449,66.3828 153.282,66.5494 154,67.5C 152.11,89.4678 152.11,111.468 154,133.5C 154.149,138.101 154.982,142.434 156.5,146.5 Z"/></g>
<g><path style="opacity:1" fill="#276e2b" d="M 57.5,166.5 C 53.827,165 50.4937,163 47.5,160.5C 46.8677,150.705 45.3677,141.039 43,131.5C 42.9612,109.752 41.7946,88.0854 39.5,66.5C 40.675,66.281 41.675,66.6143 42.5,67.5C 50.8159,81.1388 56.6492,95.8055 60,111.5C 59.0941,129.81 58.2608,148.143 57.5,166.5 Z"/></g>
<g><path style="opacity:1" fill="#256e2c" d="M 144.5,157.5 C 134.678,164.908 123.678,169.908 111.5,172.5C 113.35,154.884 114.35,137.218 114.5,119.5C 114.915,105.379 113.915,91.3787 111.5,77.5C 112.552,77.3505 113.552,77.5172 114.5,78C 116.452,80.0739 118.285,82.2406 120,84.5C 133.643,106.93 141.81,131.263 144.5,157.5 Z"/></g>
<g><path style="opacity:0.993" fill="#286f2b" d="M 105.5,173.5 C 99.8936,174.407 94.227,174.74 88.5,174.5C 88.1418,144.507 92.3085,115.174 101,86.5C 101.154,83.4754 102.654,81.8087 105.5,81.5C 107.881,93.7048 108.881,106.038 108.5,118.5C 107.922,136.859 106.922,155.192 105.5,173.5 Z"/></g>
<g><path style="opacity:1" fill="#2d702b" d="M 41.5,156.5 C 35.5,152.5 30.5,147.5 26.5,141.5C 27.0594,130.337 26.0594,119.337 23.5,108.5C 24.8221,108.33 25.9887,108.663 27,109.5C 35.7557,123.935 40.589,139.602 41.5,156.5 Z"/></g>
<g><path style="opacity:1" fill="#b39910" d="M 85.5,132.5 C 85.8836,136.489 85.217,140.155 83.5,143.5C 83.8084,139.64 84.4751,135.974 85.5,132.5 Z"/></g>
<g><path style="opacity:1" fill="#477925" d="M 64.5,137.5 C 64.1681,147.855 64.5014,158.188 65.5,168.5C 66.5223,168.855 67.189,169.522 67.5,170.5C 65.847,170.34 64.5137,169.674 63.5,168.5C 63.1724,157.986 63.5058,147.653 64.5,137.5 Z"/></g>
</svg>
